<svg width="17" height="18" viewBox="0 0 17 18" fill="none" xmlns="http://www.w3.org/2000/svg">
<path d="M17 8.8662C17 8.15306 16.9421 7.63265 16.8169 7.09297H8.67346V10.3118H13.4535C13.3571 11.1117 12.8367 12.3163 11.6802 13.1258L11.664 13.2336L14.2388 15.2282L14.4172 15.246C16.0555 13.733 17 11.5068 17 8.8662Z" fill="white"/>
<path d="M8.67346 17.3469C11.0153 17.3469 12.9812 16.5759 14.4172 15.246L11.6802 13.1258C10.9478 13.6366 9.96482 13.9932 8.67346 13.9932C6.37983 13.9932 4.43313 12.4802 3.73918 10.3889L3.63747 10.3975L0.960153 12.4695L0.92514 12.5669C2.35143 15.4002 5.28114 17.3469 8.67346 17.3469Z" fill="white"/>
<path d="M3.73919 10.3889C3.55609 9.84922 3.45012 9.27095 3.45012 8.67347C3.45012 8.07593 3.55609 7.49772 3.72956 6.95805L3.72471 6.84311L1.01384 4.73782L0.925148 4.78001C0.337305 5.95576 0 7.27608 0 8.67347C0 10.0709 0.337305 11.3911 0.925148 12.5669L3.73919 10.3889Z" fill="white"/>
<path d="M8.67346 3.35372C10.3021 3.35372 11.4007 4.05723 12.0272 4.64514L14.475 2.2551C12.9717 0.857713 11.0153 0 8.67346 0C5.28114 0 2.35143 1.9467 0.92514 4.78001L3.72955 6.95804C4.43313 4.86678 6.37983 3.35372 8.67346 3.35372Z" fill="white"/>
</svg>
