<svg width="18" height="20" viewBox="0 0 18 20" fill="none" xmlns="http://www.w3.org/2000/svg">
<g clip-path="url(#clip0_643_2)">
<path d="M3.93414 17.501H0.290314V5.81737H3.93414V17.501ZM2.11027 4.22362C0.945089 4.22362 0 3.26269 0 2.10253C8.33985e-09 1.54526 0.222331 1.01082 0.618083 0.616777C1.01384 0.222731 1.55059 0.00135803 2.11027 0.00135803C2.66995 0.00135803 3.2067 0.222731 3.60245 0.616777C3.9982 1.01082 4.22054 1.54526 4.22054 2.10253C4.22054 3.26269 3.27505 4.22362 2.11027 4.22362ZM17.5718 17.501H13.9358V11.8135C13.9358 10.458 13.9084 8.71972 12.0414 8.71972C10.1469 8.71972 9.85655 10.1924 9.85655 11.7158V17.501H6.21664V5.81737H9.71139V7.41112H9.76239C10.2489 6.49316 11.4372 5.52441 13.2101 5.52441C16.8978 5.52441 17.5758 7.94237 17.5758 11.083V17.501H17.5718Z" fill="black"/>
</g>
<defs>
<clipPath id="clip0_643_2">
<rect width="17.5758" height="20" fill="white"/>
</clipPath>
</defs>
</svg>
